<svg version="1.1" id="Layer_1" xmlns="http://www.w3.org/2000/svg" xmlns:xlink="http://www.w3.org/1999/xlink" x="0px" y="0px"
	 width="100%" viewBox="0 0 445 211" enable-background="new 0 0 445 211" xml:space="preserve">
<path fill="#000000" opacity="1.000000" stroke="none" 
	d="
M306.000000,212.000000 
	C204.000061,212.000000 102.500107,212.000000 1.000123,212.000000 
	C1.000082,141.666763 1.000082,71.333519 1.000041,1.000207 
	C149.333160,1.000138 297.666321,1.000138 445.999634,1.000069 
	C445.999756,71.333122 445.999756,141.666245 445.999878,211.999695 
	C399.500000,212.000000 353.000000,212.000000 306.000000,212.000000 
M325.659851,126.227669 
	C327.078461,116.102516 328.321411,105.948608 329.972626,95.861526 
	C331.237579,88.133980 332.083038,80.090065 339.700012,75.198860 
	C340.497833,74.686554 340.391998,72.766991 340.757599,71.289513 
	C331.565704,71.289513 323.101746,71.289513 313.484467,71.289513 
	C314.455566,73.243126 315.189606,74.588570 315.805237,75.986168 
	C317.013428,78.728943 318.978607,81.455818 319.132324,84.271072 
	C319.362701,88.490646 318.440063,92.802681 317.765747,97.036842 
	C315.304871,112.489227 312.755371,127.927551 310.214905,143.367157 
	C309.094818,150.174362 307.916199,156.971924 306.764160,163.773865 
	C305.512024,161.179504 305.056152,158.619675 304.691742,156.046875 
	C302.773315,142.502762 300.746704,128.972092 299.017334,115.403671 
	C297.702057,105.083931 296.717560,94.720329 295.705261,84.364571 
	C295.344788,80.676712 296.504211,77.646042 299.939758,75.546692 
	C300.982819,74.909309 301.318604,73.114464 302.209778,71.406052 
	C287.359253,71.406052 273.449310,71.406052 258.694916,71.406052 
	C259.604797,73.168419 259.996399,75.163208 260.863464,75.397377 
	C265.152802,76.555840 265.610504,79.760345 265.273254,83.171501 
	C264.429932,91.701675 263.435852,100.220901 262.298401,108.717232 
	C259.978821,126.043549 257.541138,143.354218 255.074066,160.660187 
	C254.962601,161.442184 254.085144,162.114975 253.435287,163.018158 
	C251.531403,149.743607 249.633621,136.860489 247.848099,123.961838 
	C246.152832,111.715157 244.196289,99.484497 243.147064,87.179230 
	C242.770004,82.757164 243.143082,77.398064 249.197266,75.479202 
	C250.412338,75.094078 251.197952,73.353943 253.033340,71.272736 
	C235.719452,71.272736 220.096954,71.272736 203.264053,71.272736 
	C204.475693,73.012009 205.236603,74.127029 206.020721,75.225494 
	C208.143478,78.199257 211.417465,80.896202 212.194931,84.185135 
	C214.722534,94.877777 216.554855,105.752144 218.253159,116.619324 
	C220.695877,132.249893 223.227264,147.890503 224.833649,163.617447 
	C225.599625,171.116501 230.013794,179.211380 223.437363,186.451996 
	C222.956528,186.981400 223.374313,188.326981 223.374313,189.408569 
	C237.613403,189.408569 251.534943,189.408569 265.571625,189.408569 
	C265.571625,188.152084 265.979095,186.598572 265.508514,186.257874 
	C260.862518,182.894302 262.449585,178.061035 262.957947,173.952560 
	C265.163849,156.123398 267.816040,138.349442 270.490356,119.237885 
	C271.271973,122.544029 271.928772,124.653351 272.255188,126.812614 
	C274.201050,139.685318 276.539001,152.524918 277.773346,165.468307 
	C278.414886,172.195908 283.077576,179.521652 276.517395,186.008774 
	C275.953186,186.566681 276.442627,188.190125 276.442627,189.471863 
	C291.655487,189.471863 306.606995,189.471863 322.060699,189.471863 
	C321.779999,187.957718 321.989838,186.159088 321.251617,185.589844 
	C316.924622,182.253143 317.653687,177.951416 318.394104,173.503967 
	C318.935211,170.253830 319.194611,166.957428 319.709686,163.702225 
	C321.640472,151.500595 323.624664,139.307434 325.659851,126.227669 
M344.224426,163.174728 
	C341.433807,156.943802 338.666565,150.702179 335.827423,144.493454 
	C335.400299,143.559448 334.637360,142.779022 334.029755,141.927551 
	C333.624634,142.124649 333.219482,142.321732 332.814331,142.518829 
	C333.728607,158.807297 334.642914,175.095749 335.569153,191.597000 
	C342.011597,187.250259 343.407715,186.961105 351.016357,189.167023 
	C363.929688,192.910889 376.936340,194.054276 390.091034,190.694412 
	C402.314178,187.572510 412.409698,181.498215 417.452393,169.284515 
	C420.595581,161.671585 421.259674,153.584595 420.826721,145.396469 
	C420.322968,135.869568 416.658051,127.692566 408.194153,123.200592 
	C398.243408,117.919479 387.488831,114.171471 377.385712,109.149406 
	C373.482056,107.208969 369.537750,104.174438 367.173462,100.604309 
	C364.067871,95.914787 366.832489,91.012367 370.059296,87.147148 
	C373.963257,82.470795 379.360077,81.621925 384.975220,83.219635 
	C395.763458,86.289291 402.399933,93.892822 406.818970,103.835655 
	C407.365814,105.066086 408.637329,105.974434 409.573059,107.032021 
	C410.031158,106.729271 410.489258,106.426529 410.947388,106.123787 
	C410.260590,99.908211 409.497345,93.699875 408.908264,87.475060 
	C408.310211,81.155067 407.884033,74.818817 407.341156,67.967407 
	C401.571167,72.844330 396.002563,72.382843 389.738281,70.416039 
	C384.235382,68.688271 378.267700,68.440735 372.801147,67.585693 
	C368.768738,77.803810 365.755402,78.887146 356.929016,74.669960 
	C355.892487,74.174698 353.959808,74.455978 352.968964,75.139931 
	C345.747253,80.124908 340.129181,86.411835 337.751831,95.127762 
	C333.140930,112.032814 337.327667,129.460251 355.882477,137.065018 
	C363.925934,140.361649 372.015350,143.564575 379.934601,147.140640 
	C387.919708,150.746460 389.127258,153.409241 388.315308,163.195496 
	C387.762177,169.862198 384.134552,174.256348 377.486847,176.311996 
	C365.725372,179.948975 352.029602,174.673630 344.224426,163.174728 
M47.661884,97.743675 
	C57.639423,112.003128 67.796677,126.141365 77.527222,140.567413 
	C83.378769,149.242661 89.091385,158.094070 93.894043,167.369781 
	C98.185471,175.658096 97.018028,178.251892 90.273361,184.868759 
	C89.326469,185.797699 89.330879,187.696320 88.792686,189.486145 
	C98.770500,189.486145 108.060623,189.486145 117.967422,189.486145 
	C117.488663,187.873764 117.453316,185.778137 116.675362,185.451569 
	C111.121300,183.120132 110.998894,178.208527 110.721077,173.478592 
	C110.293449,166.198135 109.968681,158.901489 109.933327,151.610092 
	C109.831551,130.615173 109.703476,109.616425 110.032784,88.626190 
	C110.114410,83.423256 110.358795,77.558868 116.561935,74.774193 
	C117.320572,74.433624 117.475929,72.749199 118.086121,71.259781 
	C108.049896,71.259781 98.759583,71.259781 88.063965,71.259781 
	C89.478752,73.233742 90.370651,74.464790 91.248550,75.705742 
	C93.198097,78.461548 96.613892,81.117851 96.818245,84.000053 
	C97.516930,93.854126 97.086021,103.788307 97.086021,115.290833 
	C89.996239,104.490051 83.525238,95.096138 77.608887,85.364998 
	C75.560654,81.996086 73.599464,77.683022 78.911842,74.607704 
	C79.554596,74.235619 79.398560,72.483673 79.622185,71.322205 
	C60.837883,71.322205 42.727879,71.322205 23.672729,71.322205 
	C24.526827,73.110489 24.921907,75.307732 25.776201,75.503761 
	C31.266390,76.763573 32.178070,81.072441 32.193340,85.369690 
	C32.299919,115.359818 32.259876,145.351364 32.033504,175.340698 
	C32.003231,179.351135 31.263060,183.579712 26.433201,185.449722 
	C25.549044,185.792053 25.368116,187.950668 24.729868,189.617477 
	C34.483662,189.617477 43.426662,189.617477 53.865868,189.617477 
	C52.425911,187.591827 51.810375,186.064911 50.680305,185.263779 
	C47.645504,183.112335 45.751633,180.584473 45.773335,176.665115 
	C45.828690,166.669464 45.805275,156.671555 45.649075,146.677124 
	C45.524689,138.718201 45.042255,130.764694 44.929039,122.805786 
	C44.798447,113.625793 44.898678,104.442513 44.898678,94.191658 
	C46.195152,95.898354 46.675594,96.530815 47.661884,97.743675 
M128.102814,149.499908 
	C127.839600,158.284058 127.648354,167.071243 127.280365,175.850998 
	C127.116051,179.771255 125.997269,183.222733 122.064659,185.291138 
	C120.996361,185.853012 120.609749,187.710953 119.521263,189.676498 
	C146.680542,189.676498 172.484894,189.725601 198.287354,189.528229 
	C199.547531,189.518585 201.539810,187.556213 201.925339,186.154892 
	C205.322556,173.806976 208.482529,161.392395 211.549881,148.957367 
	C211.854309,147.723251 211.074997,146.221817 210.798691,144.844437 
	C210.295120,144.878403 209.791550,144.912369 209.287979,144.946335 
	C208.287552,147.175415 207.371811,149.447205 206.272598,151.626465 
	C200.321030,163.426086 192.555283,173.250122 178.965668,176.817841 
	C168.221863,179.638443 158.430618,175.366623 157.999878,166.460007 
	C157.287277,151.724731 157.806198,136.929871 157.806198,121.856850 
	C164.919556,121.792931 172.267426,119.871780 177.601089,125.040253 
	C182.169403,129.467056 185.360672,135.314926 189.160965,140.534317 
	C189.482468,140.469849 189.803970,140.405396 190.125473,140.340927 
	C188.034393,125.206047 185.943329,110.071159 183.852249,94.936279 
	C183.188339,94.830345 182.524445,94.724403 181.860535,94.618469 
	C180.560043,99.888969 180.904266,106.516533 174.587372,108.279404 
	C169.340103,109.743759 163.761780,110.021828 157.794342,110.904663 
	C157.794342,104.025124 157.476685,98.389114 157.883026,92.805801 
	C158.295380,87.140068 162.133698,83.421455 167.694717,82.786507 
	C174.104370,82.054665 180.203568,83.255615 185.674164,86.805710 
	C192.982849,91.548599 197.933487,98.095978 200.629532,106.425156 
	C201.066544,107.775253 202.529907,108.793144 203.518860,109.964592 
	C203.884995,109.635979 204.251144,109.307358 204.617279,108.978737 
	C202.372772,95.760033 200.128281,82.541321 197.927673,69.581184 
	C181.989807,72.588943 166.660309,70.249451 151.420883,71.311409 
	C145.983292,78.931625 141.782211,79.285934 134.988968,72.745239 
	C134.215881,72.000885 133.077637,71.243141 132.076569,71.197571 
	C128.162262,71.019379 124.235069,71.124786 118.878365,71.124786 
	C120.473656,73.361069 121.323380,74.508499 122.126793,75.687492 
	C123.822243,78.175529 126.169197,80.475616 127.002625,83.229904 
	C128.031418,86.629852 128.042511,90.411880 128.060776,94.030991 
	C128.152451,112.186905 128.102798,130.343536 128.102814,149.499908 
M366.483124,73.035591 
	C367.176544,71.936417 367.869965,70.837242 368.563385,69.738060 
	C368.279327,69.386673 367.995270,69.035286 367.711212,68.683899 
	C364.877808,69.616112 362.044434,70.548325 359.211060,71.480545 
	C359.295959,72.138031 359.380829,72.795525 359.465729,73.453018 
	C361.621216,73.453018 363.776703,73.453018 366.483124,73.035591 
z"/>
<path fill="#B5B6B9" opacity="1.000000" stroke="none" 
	d="
M325.624329,126.669388 
	C323.624664,139.307434 321.640472,151.500595 319.709686,163.702225 
	C319.194611,166.957428 318.935211,170.253830 318.394104,173.503967 
	C317.653687,177.951416 316.924622,182.253143 321.251617,185.589844 
	C321.989838,186.159088 321.779999,187.957718 322.060699,189.471863 
	C306.606995,189.471863 291.655487,189.471863 276.442627,189.471863 
	C276.442627,188.190125 275.953186,186.566681 276.517395,186.008774 
	C283.077576,179.521652 278.414886,172.195908 277.773346,165.468307 
	C276.539001,152.524918 274.201050,139.685318 272.255188,126.812614 
	C271.928772,124.653351 271.271973,122.544029 270.490356,119.237885 
	C267.816040,138.349442 265.163849,156.123398 262.957947,173.952560 
	C262.449585,178.061035 260.862518,182.894302 265.508514,186.257874 
	C265.979095,186.598572 265.571625,188.152084 265.571625,189.408569 
	C251.534943,189.408569 237.613403,189.408569 223.374313,189.408569 
	C223.374313,188.326981 222.956528,186.981400 223.437363,186.451996 
	C230.013794,179.211380 225.599625,171.116501 224.833649,163.617447 
	C223.227264,147.890503 220.695877,132.249893 218.253159,116.619324 
	C216.554855,105.752144 214.722534,94.877777 212.194931,84.185135 
	C211.417465,80.896202 208.143478,78.199257 206.020721,75.225494 
	C205.236603,74.127029 204.475693,73.012009 203.264053,71.272736 
	C220.096954,71.272736 235.719452,71.272736 253.033340,71.272736 
	C251.197952,73.353943 250.412338,75.094078 249.197266,75.479202 
	C243.143082,77.398064 242.770004,82.757164 243.147064,87.179230 
	C244.196289,99.484497 246.152832,111.715157 247.848099,123.961838 
	C249.633621,136.860489 251.531403,149.743607 253.435287,163.018158 
	C254.085144,162.114975 254.962601,161.442184 255.074066,160.660187 
	C257.541138,143.354218 259.978821,126.043549 262.298401,108.717232 
	C263.435852,100.220901 264.429932,91.701675 265.273254,83.171501 
	C265.610504,79.760345 265.152802,76.555840 260.863464,75.397377 
	C259.996399,75.163208 259.604797,73.168419 258.694916,71.406052 
	C273.449310,71.406052 287.359253,71.406052 302.209778,71.406052 
	C301.318604,73.114464 300.982819,74.909309 299.939758,75.546692 
	C296.504211,77.646042 295.344788,80.676712 295.705261,84.364571 
	C296.717560,94.720329 297.702057,105.083931 299.017334,115.403671 
	C300.746704,128.972092 302.773315,142.502762 304.691742,156.046875 
	C305.056152,158.619675 305.512024,161.179504 306.764160,163.773865 
	C307.916199,156.971924 309.094818,150.174362 310.214905,143.367157 
	C312.755371,127.927551 315.304871,112.489227 317.765747,97.036842 
	C318.440063,92.802681 319.362701,88.490646 319.132324,84.271072 
	C318.978607,81.455818 317.013428,78.728943 315.805237,75.986168 
	C315.189606,74.588570 314.455566,73.243126 313.484467,71.289513 
	C323.101746,71.289513 331.565704,71.289513 340.757599,71.289513 
	C340.391998,72.766991 340.497833,74.686554 339.700012,75.198860 
	C332.083038,80.090065 331.237579,88.133980 329.972626,95.861526 
	C328.321411,105.948608 327.078461,116.102516 325.624329,126.669388 
z"/>
<path fill="#B6B7B9" opacity="1.000000" stroke="none" 
	d="
M344.479797,163.435699 
	C352.029602,174.673630 365.725372,179.948975 377.486847,176.311996 
	C384.134552,174.256348 387.762177,169.862198 388.315308,163.195496 
	C389.127258,153.409241 387.919708,150.746460 379.934601,147.140640 
	C372.015350,143.564575 363.925934,140.361649 355.882477,137.065018 
	C337.327667,129.460251 333.140930,112.032814 337.751831,95.127762 
	C340.129181,86.411835 345.747253,80.124908 352.968964,75.139931 
	C353.959808,74.455978 355.892487,74.174698 356.929016,74.669960 
	C365.755402,78.887146 368.768738,77.803810 372.801147,67.585693 
	C378.267700,68.440735 384.235382,68.688271 389.738281,70.416039 
	C396.002563,72.382843 401.571167,72.844330 407.341156,67.967407 
	C407.884033,74.818817 408.310211,81.155067 408.908264,87.475060 
	C409.497345,93.699875 410.260590,99.908211 410.947388,106.123787 
	C410.489258,106.426529 410.031158,106.729271 409.573059,107.032021 
	C408.637329,105.974434 407.365814,105.066086 406.818970,103.835655 
	C402.399933,93.892822 395.763458,86.289291 384.975220,83.219635 
	C379.360077,81.621925 373.963257,82.470795 370.059296,87.147148 
	C366.832489,91.012367 364.067871,95.914787 367.173462,100.604309 
	C369.537750,104.174438 373.482056,107.208969 377.385712,109.149406 
	C387.488831,114.171471 398.243408,117.919479 408.194153,123.200592 
	C416.658051,127.692566 420.322968,135.869568 420.826721,145.396469 
	C421.259674,153.584595 420.595581,161.671585 417.452393,169.284515 
	C412.409698,181.498215 402.314178,187.572510 390.091034,190.694412 
	C376.936340,194.054276 363.929688,192.910889 351.016357,189.167023 
	C343.407715,186.961105 342.011597,187.250259 335.569153,191.597000 
	C334.642914,175.095749 333.728607,158.807297 332.814331,142.518829 
	C333.219482,142.321732 333.624634,142.124649 334.029755,141.927551 
	C334.637360,142.779022 335.400299,143.559448 335.827423,144.493454 
	C338.666565,150.702179 341.433807,156.943802 344.479797,163.435699 
z"/>
<path fill="#B5B6B8" opacity="1.000000" stroke="none" 
	d="
M47.408958,97.453476 
	C46.675594,96.530815 46.195152,95.898354 44.898678,94.191658 
	C44.898678,104.442513 44.798447,113.625793 44.929039,122.805786 
	C45.042255,130.764694 45.524689,138.718201 45.649075,146.677124 
	C45.805275,156.671555 45.828690,166.669464 45.773335,176.665115 
	C45.751633,180.584473 47.645504,183.112335 50.680305,185.263779 
	C51.810375,186.064911 52.425911,187.591827 53.865868,189.617477 
	C43.426662,189.617477 34.483662,189.617477 24.729868,189.617477 
	C25.368116,187.950668 25.549044,185.792053 26.433201,185.449722 
	C31.263060,183.579712 32.003231,179.351135 32.033504,175.340698 
	C32.259876,145.351364 32.299919,115.359818 32.193340,85.369690 
	C32.178070,81.072441 31.266390,76.763573 25.776201,75.503761 
	C24.921907,75.307732 24.526827,73.110489 23.672729,71.322205 
	C42.727879,71.322205 60.837883,71.322205 79.622185,71.322205 
	C79.398560,72.483673 79.554596,74.235619 78.911842,74.607704 
	C73.599464,77.683022 75.560654,81.996086 77.608887,85.364998 
	C83.525238,95.096138 89.996239,104.490051 97.086021,115.290833 
	C97.086021,103.788307 97.516930,93.854126 96.818245,84.000053 
	C96.613892,81.117851 93.198097,78.461548 91.248550,75.705742 
	C90.370651,74.464790 89.478752,73.233742 88.063965,71.259781 
	C98.759583,71.259781 108.049896,71.259781 118.086121,71.259781 
	C117.475929,72.749199 117.320572,74.433624 116.561935,74.774193 
	C110.358795,77.558868 110.114410,83.423256 110.032784,88.626190 
	C109.703476,109.616425 109.831551,130.615173 109.933327,151.610092 
	C109.968681,158.901489 110.293449,166.198135 110.721077,173.478592 
	C110.998894,178.208527 111.121300,183.120132 116.675362,185.451569 
	C117.453316,185.778137 117.488663,187.873764 117.967422,189.486145 
	C108.060623,189.486145 98.770500,189.486145 88.792686,189.486145 
	C89.330879,187.696320 89.326469,185.797699 90.273361,184.868759 
	C97.018028,178.251892 98.185471,175.658096 93.894043,167.369781 
	C89.091385,158.094070 83.378769,149.242661 77.527222,140.567413 
	C67.796677,126.141365 57.639423,112.003128 47.408958,97.453476 
z"/>
<path fill="#B4B5B7" opacity="1.000000" stroke="none" 
	d="
M128.102814,148.999908 
	C128.102798,130.343536 128.152451,112.186905 128.060776,94.030991 
	C128.042511,90.411880 128.031418,86.629852 127.002625,83.229904 
	C126.169197,80.475616 123.822243,78.175529 122.126793,75.687492 
	C121.323380,74.508499 120.473656,73.361069 118.878365,71.124786 
	C124.235069,71.124786 128.162262,71.019379 132.076569,71.197571 
	C133.077637,71.243141 134.215881,72.000885 134.988968,72.745239 
	C141.782211,79.285934 145.983292,78.931625 151.420883,71.311409 
	C166.660309,70.249451 181.989807,72.588943 197.927673,69.581184 
	C200.128281,82.541321 202.372772,95.760033 204.617279,108.978737 
	C204.251144,109.307358 203.884995,109.635979 203.518860,109.964592 
	C202.529907,108.793144 201.066544,107.775253 200.629532,106.425156 
	C197.933487,98.095978 192.982849,91.548599 185.674164,86.805710 
	C180.203568,83.255615 174.104370,82.054665 167.694717,82.786507 
	C162.133698,83.421455 158.295380,87.140068 157.883026,92.805801 
	C157.476685,98.389114 157.794342,104.025124 157.794342,110.904663 
	C163.761780,110.021828 169.340103,109.743759 174.587372,108.279404 
	C180.904266,106.516533 180.560043,99.888969 181.860535,94.618469 
	C182.524445,94.724403 183.188339,94.830345 183.852249,94.936279 
	C185.943329,110.071159 188.034393,125.206047 190.125473,140.340927 
	C189.803970,140.405396 189.482468,140.469849 189.160965,140.534317 
	C185.360672,135.314926 182.169403,129.467056 177.601089,125.040253 
	C172.267426,119.871780 164.919556,121.792931 157.806198,121.856850 
	C157.806198,136.929871 157.287277,151.724731 157.999878,166.460007 
	C158.430618,175.366623 168.221863,179.638443 178.965668,176.817841 
	C192.555283,173.250122 200.321030,163.426086 206.272598,151.626465 
	C207.371811,149.447205 208.287552,147.175415 209.287979,144.946335 
	C209.791550,144.912369 210.295120,144.878403 210.798691,144.844437 
	C211.074997,146.221817 211.854309,147.723251 211.549881,148.957367 
	C208.482529,161.392395 205.322556,173.806976 201.925339,186.154892 
	C201.539810,187.556213 199.547531,189.518585 198.287354,189.528229 
	C172.484894,189.725601 146.680542,189.676498 119.521263,189.676498 
	C120.609749,187.710953 120.996361,185.853012 122.064659,185.291138 
	C125.997269,183.222733 127.116051,179.771255 127.280365,175.850998 
	C127.648354,167.071243 127.839600,158.284058 128.102814,148.999908 
z"/>
<path fill="#999A9C" opacity="1.000000" stroke="none" 
	d="
M366.207642,73.244308 
	C363.776703,73.453018 361.621216,73.453018 359.465729,73.453018 
	C359.380829,72.795525 359.295959,72.138031 359.211060,71.480545 
	C362.044434,70.548325 364.877808,69.616112 367.711212,68.683899 
	C367.995270,69.035286 368.279327,69.386673 368.563385,69.738060 
	C367.869965,70.837242 367.176544,71.936417 366.207642,73.244308 
z"/>
</svg>